<?xml version="1.0" standalone="no"?>
<!DOCTYPE svg PUBLIC "-//W3C//DTD SVG 20010904//EN"
 "http://www.w3.org/TR/2001/REC-SVG-20010904/DTD/svg10.dtd">
<svg version="1.0" xmlns="http://www.w3.org/2000/svg"
 width="920.000000pt" height="234.000000pt" viewBox="0 0 920.000000 234.000000"
 preserveAspectRatio="xMidYMid meet">
<metadata>
Created by potrace 1.16, written by Peter Selinger 2001-2019
</metadata>
<g transform="translate(0.000000,234.000000) scale(0.100000,-0.100000)"
fill="#000000" stroke="none">
<path d="M478 1956 c-60 -21 -115 -72 -145 -134 l-28 -57 0 -515 c0 -472 1
-518 18 -553 27 -57 86 -118 142 -143 l50 -24 590 0 590 0 250 -140 c137 -76
251 -137 253 -135 2 1 -20 59 -48 126 -29 68 -54 130 -57 137 -4 9 90 12 453
12 l459 0 50 24 c60 29 107 76 134 136 20 43 21 64 21 560 l0 515 -24 50 c-28
60 -99 127 -154 143 -60 18 -2503 16 -2554 -2z m1133 -159 c54 -36 57 -69 16
-173 -43 -108 -60 -173 -86 -329 -32 -196 -42 -293 -42 -420 0 -66 -5 -135
-11 -152 -19 -65 -86 -82 -144 -38 -95 72 -216 291 -281 505 -3 8 -54 -84
-115 -204 -88 -175 -121 -230 -162 -272 -73 -76 -113 -70 -159 21 -59 119
-216 888 -196 960 13 44 41 67 91 72 37 4 49 1 71 -18 26 -22 30 -40 67 -254
21 -126 49 -277 63 -335 l24 -105 16 30 c9 17 72 136 140 265 108 207 127 237
159 255 29 15 42 17 64 10 44 -16 62 -53 88 -179 14 -65 40 -164 58 -219 l33
-100 18 129 c50 361 134 574 225 574 16 0 44 -10 63 -23z m487 -122 c139 -42
222 -182 222 -374 -1 -199 -107 -412 -242 -483 -35 -18 -59 -23 -129 -23 -75
0 -92 3 -144 30 -70 36 -126 107 -153 195 -23 76 -22 244 2 324 78 262 249
389 444 331z m749 0 c66 -20 144 -89 177 -158 93 -197 30 -503 -135 -651 -64
-58 -130 -80 -218 -74 -181 13 -291 157 -291 384 0 99 28 212 72 297 46 88
141 181 204 200 64 20 128 21 191 2z"/>
<path d="M1972 1473 c-38 -19 -87 -85 -114 -155 -42 -111 -9 -297 56 -314 91
-22 186 98 203 255 10 99 -35 209 -92 225 -11 3 -35 -2 -53 -11z"/>
<path d="M2724 1476 c-39 -17 -75 -63 -111 -141 -38 -84 -39 -197 -3 -270 39
-78 94 -86 159 -23 97 94 123 321 48 411 -28 33 -55 39 -93 23z"/>
<path d="M3705 1656 c-188 -48 -305 -204 -305 -403 0 -206 110 -366 287 -419
51 -16 166 -20 226 -9 l37 7 0 98 0 99 -32 -10 c-130 -37 -253 33 -279 160
-28 134 30 256 137 291 35 12 121 8 158 -6 14 -5 16 6 16 89 0 65 -4 98 -12
103 -22 14 -181 14 -233 0z"/>
<path d="M4240 1657 c-97 -27 -174 -98 -211 -196 -27 -70 -38 -260 -19 -353
23 -120 84 -208 175 -256 68 -35 216 -43 296 -17 74 25 158 109 187 187 47
126 48 319 1 443 -27 72 -87 138 -157 171 -68 32 -198 42 -272 21z m170 -196
c44 -31 61 -100 57 -236 -2 -91 -8 -129 -21 -158 -49 -101 -177 -84 -205 27
-14 56 -14 239 -1 288 27 95 99 128 170 79z"/>
<path d="M8162 1660 c-115 -24 -241 -130 -283 -238 -26 -69 -36 -206 -20 -281
32 -150 146 -272 288 -310 48 -13 161 -16 216 -6 l37 7 0 98 0 99 -32 -10
c-121 -34 -241 25 -273 135 -54 182 54 342 219 322 30 -3 61 -9 70 -12 14 -5
16 6 16 89 0 65 -4 98 -12 103 -19 12 -177 14 -226 4z"/>
<path d="M4825 1628 c-6 -31 -95 -743 -95 -768 0 -19 7 -20 99 -20 94 0 99 1
104 23 3 12 16 135 28 274 13 138 25 250 27 248 2 -1 34 -124 71 -271 l67
-269 76 -3 75 -3 62 258 c34 142 65 265 68 273 3 8 16 -84 29 -205 12 -121 25
-244 29 -272 l6 -53 109 0 c98 0 108 2 104 18 -2 9 -15 103 -28 207 -14 105
-37 275 -51 379 -14 103 -25 192 -25 197 0 5 -64 9 -143 9 l-143 0 -36 -162
c-21 -90 -42 -190 -49 -223 l-12 -60 -38 180 c-20 99 -41 198 -46 220 l-9 40
-137 3 c-135 3 -137 2 -142 -20z"/>
<path d="M5820 1646 c0 -2 -9 -71 -20 -152 -29 -224 -80 -627 -80 -641 0 -10
27 -13 104 -13 l103 0 6 73 c18 223 40 443 46 449 4 4 33 -97 66 -225 32 -127
63 -247 67 -264 l9 -33 74 0 c62 0 74 3 79 18 2 9 30 125 61 257 32 132 60
247 63 255 3 8 13 -57 22 -145 10 -88 23 -211 30 -272 l13 -113 109 0 110 0
-6 28 c-6 28 -67 475 -86 622 -6 47 -13 102 -16 123 l-6 38 -141 -3 -141 -3
-23 -95 c-12 -52 -32 -144 -43 -205 -29 -148 -31 -150 -46 -70 -7 39 -27 139
-45 223 l-32 152 -139 0 c-76 0 -138 -2 -138 -4z"/>
<path d="M6742 1243 l3 -408 220 0 220 0 3 88 3 87 -116 0 -115 0 0 75 0 75
95 0 95 0 0 85 0 86 -92 -3 -93 -3 -3 73 -3 72 111 0 110 0 0 90 0 90 -220 0
-220 0 2 -407z"/>
<path d="M7250 1246 l0 -406 110 0 110 0 2 181 3 181 85 -181 85 -180 117 -1
117 0 -84 176 c-47 97 -85 179 -85 183 1 3 18 18 40 33 55 38 84 98 85 173 0
103 -59 177 -175 221 -34 13 -89 18 -227 22 l-183 4 0 -406z m305 230 c41 -17
57 -45 53 -93 -4 -44 -37 -72 -96 -80 l-42 -6 0 97 0 96 25 0 c14 0 41 -6 60
-14z"/>
<path d="M8460 1245 l0 -405 220 0 220 0 0 85 0 85 -110 0 -110 0 0 75 0 75
95 0 95 0 0 83 0 84 -95 -2 -95 -1 0 76 0 75 110 -3 110 -3 0 90 0 91 -220 0
-220 0 0 -405z"/>
</g>
</svg>
